<svg width="316" height="350" viewBox="0 0 316 350" fill="none" xmlns="http://www.w3.org/2000/svg">
<path d="M201.351 98.4969L201.776 98.743C224.581 72.2708 247.215 62.2431 266.19 62.432C285.164 62.6209 300.528 73.0254 308.81 87.5206C317.092 102.016 318.289 120.596 308.929 137.133C299.57 153.67 279.63 168.205 245.562 174.547L245.56 175.038C279.629 181.656 299.5 196.329 308.774 212.918C318.048 229.507 316.749 248.052 308.398 262.479C300.047 276.905 284.649 287.206 265.726 287.309C246.803 287.412 224.307 277.315 201.777 250.843L201.351 251.087C212.89 284.178 210.333 308.881 200.786 325.28C191.238 341.68 174.679 349.818 158.116 349.75C141.553 349.681 124.992 341.405 115.444 324.97C105.896 308.536 103.34 283.902 114.879 251.088L114.454 250.842C91.6492 277.315 69.0147 287.412 50.0394 287.309C31.0645 287.206 15.7014 276.905 7.41948 262.479C-0.862506 248.054 -2.05996 229.509 7.3 212.919C16.6598 196.33 36.6005 181.656 70.6692 175.038L70.6669 174.547C36.3223 168.205 16.2453 153.738 6.83498 137.287C-2.57519 120.837 -1.34427 102.362 7.00633 87.9361C15.357 73.5098 30.8242 63.1384 49.8864 62.8979C68.9482 62.6575 91.651 72.5484 114.455 98.744L114.879 98.4951C103.064 65.6807 105.484 41.1175 114.98 24.7705C124.475 8.42365 141.069 0.250003 157.702 0.250003C174.335 0.250003 190.998 8.42383 200.632 24.7719C210.265 41.1197 212.89 65.6831 201.351 98.4969ZM178.725 174.793C178.725 163.594 168.692 154.662 157.564 154.662C146.42 154.662 137.504 163.611 137.504 174.793C137.504 185.958 146.403 196.03 157.564 196.03C168.709 196.03 178.725 185.975 178.725 174.793Z" stroke="#C7D1D2" stroke-width="0.5"/>
</svg>
