<svg width="169" height="51" viewBox="0 0 169 51" fill="none" xmlns="http://www.w3.org/2000/svg">
<mask id="path-1-inside-1_34_28" fill="white">
<path fill-rule="evenodd" clip-rule="evenodd" d="M150.811 25.5C169.526 13.0339 168.416 0.00378124 168.416 0.00378124C168.416 0.00378124 125.384 -0.33239 84.2144 5.33474C43.0448 -0.332379 0.0124817 0.0037918 0.0124817 0.0037918C0.0124817 0.0037918 -1.09749 13.0339 17.6182 25.5C-1.09773 37.9661 0.0124878 50.9962 0.0124878 50.9962C0.0124878 50.9962 43.0448 51.3324 84.2144 45.6653C125.384 51.3325 168.416 50.9962 168.416 50.9962C168.416 50.9962 169.527 37.9661 150.811 25.5Z"/>
</mask>
<path d="M168.416 0.00378124L168.915 -0.0386577L168.876 -0.492644L168.42 -0.496204L168.416 0.00378124ZM150.811 25.5L150.533 25.0838L149.909 25.5L150.533 25.9161L150.811 25.5ZM84.2144 5.33474L84.1462 5.83007L84.2144 5.83946L84.2825 5.83007L84.2144 5.33474ZM0.0124817 0.0037918L0.00857575 -0.496193L-0.447041 -0.492634L-0.485714 -0.0386474L0.0124817 0.0037918ZM17.6182 25.5L17.8954 25.9161L18.5201 25.5L17.8954 25.0838L17.6182 25.5ZM0.0124878 50.9962L-0.485707 51.0386L-0.447026 51.4926L0.00858107 51.4962L0.0124878 50.9962ZM84.2144 45.6653L84.2825 45.17L84.2144 45.1606L84.1462 45.17L84.2144 45.6653ZM168.416 50.9962L168.42 51.4962L168.876 51.4926L168.915 51.0387L168.416 50.9962ZM168.416 0.00378124C167.918 0.0462202 167.918 0.0459029 167.918 0.0456352C167.918 0.0456119 167.918 0.045393 167.918 0.045346C167.918 0.0452517 167.918 0.0453543 167.918 0.0456528C167.918 0.04625 167.918 0.0476312 167.918 0.0497899C167.919 0.0541076 167.919 0.0615353 167.92 0.0720216C167.921 0.0929946 167.923 0.126199 167.925 0.171224C167.928 0.261275 167.93 0.398588 167.928 0.579867C167.922 0.942435 167.893 1.48078 167.802 2.16859C167.619 3.54395 167.184 5.51778 166.172 7.88028C164.151 12.6002 159.817 18.9005 150.533 25.0838L151.088 25.9161C160.52 19.6333 164.988 13.1855 167.091 8.27388C168.142 5.8206 168.599 3.75778 168.793 2.30043C168.89 1.57189 168.921 0.994873 168.927 0.596162C168.931 0.396803 168.928 0.241999 168.924 0.135093C168.922 0.0816391 168.92 0.0401553 168.918 0.0110593C168.917 -0.00348896 168.916 -0.0149408 168.916 -0.0232442C168.915 -0.0273958 168.915 -0.0307605 168.915 -0.0333316C168.915 -0.0346171 168.915 -0.0357043 168.915 -0.0365922C168.915 -0.037036 168.915 -0.0375528 168.915 -0.0377746C168.915 -0.038241 168.915 -0.0386577 168.416 0.00378124ZM84.2825 5.83007C104.845 2.99956 125.878 1.66771 141.774 1.0437C149.721 0.731732 156.382 0.596753 161.055 0.539766C163.392 0.511273 165.232 0.502278 166.488 0.500404C167.115 0.499467 167.597 0.500311 167.921 0.501387C168.084 0.501925 168.207 0.502521 168.289 0.502982C168.33 0.503213 168.361 0.503409 168.382 0.503548C168.392 0.503617 168.4 0.503672 168.405 0.503709C168.407 0.503728 168.409 0.503742 168.411 0.503752C168.411 0.503757 168.412 0.50376 168.412 0.503763C168.412 0.503765 168.412 0.503766 168.416 0.00378124C168.42 -0.496204 168.42 -0.496205 168.42 -0.496208C168.419 -0.49621 168.419 -0.496214 168.418 -0.49622C168.417 -0.49623 168.415 -0.496245 168.412 -0.496264C168.407 -0.496303 168.399 -0.496359 168.388 -0.49643C168.367 -0.496571 168.336 -0.49677 168.294 -0.497002C168.211 -0.497468 168.088 -0.498067 167.925 -0.498608C167.599 -0.499689 167.115 -0.500534 166.486 -0.499594C165.227 -0.497716 163.384 -0.488699 161.043 -0.460159C156.362 -0.403081 149.692 -0.267906 141.734 0.0444722C125.821 0.669162 104.753 2.00279 84.1462 4.83941L84.2825 5.83007ZM84.2825 4.83941C63.6756 2.0028 42.6074 0.66917 26.6944 0.0444815C18.7371 -0.267896 12.0669 -0.40307 7.38565 -0.460149C5.04496 -0.488689 3.20141 -0.497705 1.94268 -0.499584C1.31332 -0.500523 0.83015 -0.499678 0.504147 -0.498597C0.341146 -0.498057 0.217434 -0.497457 0.134382 -0.496992C0.0928561 -0.496759 0.0614951 -0.49656 0.0404703 -0.496419C0.0299579 -0.496348 0.0220296 -0.496292 0.0167067 -0.496254C0.0140452 -0.496234 0.0120352 -0.496219 0.0106791 -0.496209C0.0100011 -0.496204 0.00947523 -0.4962 0.0091359 -0.496197C0.00877391 -0.496194 0.00857575 -0.496193 0.0124817 0.0037918C0.0163876 0.503777 0.0165177 0.503776 0.0168117 0.503773C0.0171283 0.503771 0.017586 0.503767 0.0182186 0.503763C0.0194837 0.503753 0.0214026 0.503739 0.0239727 0.50372C0.0291129 0.503683 0.0368578 0.503628 0.047186 0.503559C0.0678425 0.50342 0.098832 0.503223 0.139983 0.502993C0.222286 0.502532 0.345236 0.501935 0.507464 0.501397C0.831919 0.500321 1.31348 0.499478 1.94119 0.500415C3.19661 0.502289 5.03659 0.511284 7.37345 0.539777C12.0473 0.596764 18.7083 0.731742 26.6552 1.04371C42.5508 1.66772 63.5836 2.99956 84.1462 5.83007L84.2825 4.83941ZM0.0124817 0.0037918C-0.485714 -0.0386474 -0.485749 -0.0382306 -0.485789 -0.0377643C-0.485807 -0.0375425 -0.48585 -0.0370257 -0.485887 -0.0365819C-0.48596 -0.0356939 -0.486048 -0.0346068 -0.48615 -0.0333212C-0.486353 -0.0307502 -0.486612 -0.0273855 -0.486916 -0.0232338C-0.487524 -0.0149305 -0.488313 -0.00347863 -0.489201 0.0110696C-0.490978 0.0401656 -0.493156 0.0816494 -0.495088 0.135104C-0.498953 0.242009 -0.501841 0.396813 -0.498592 0.596173C-0.492094 0.994882 -0.461049 1.5719 -0.364155 2.30044C-0.17033 3.75779 0.286894 5.8206 1.33732 8.27389C3.44033 13.1855 7.90853 19.6333 17.341 25.9161L17.8954 25.0838C8.61217 18.9005 4.27751 12.6002 2.25659 7.88028C1.24505 5.51779 0.810036 3.54396 0.627116 2.1686C0.535638 1.48079 0.507184 0.942445 0.501275 0.579878C0.498321 0.398599 0.501003 0.261286 0.504259 0.171234C0.505887 0.12621 0.507658 0.0930053 0.508939 0.0720324C0.509579 0.0615461 0.510097 0.0541183 0.510413 0.0498007C0.510571 0.0476419 0.510679 0.0462608 0.510726 0.0456636C0.51075 0.0453651 0.510759 0.0452625 0.510751 0.0453568C0.510747 0.0454037 0.510729 0.0456227 0.510727 0.045646C0.510704 0.0459137 0.510677 0.046231 0.0124817 0.0037918ZM0.0124878 50.9962C0.510683 50.9538 0.51071 50.9541 0.510732 50.9543C0.510734 50.9544 0.510752 50.9546 0.510756 50.9546C0.510764 50.9547 0.510755 50.9546 0.510732 50.9543C0.510684 50.9537 0.510577 50.9523 0.510419 50.9502C0.510102 50.9459 0.509584 50.9384 0.508944 50.928C0.507662 50.907 0.505891 50.8738 0.504262 50.8287C0.501005 50.7387 0.49832 50.6014 0.501271 50.4201C0.507174 50.0575 0.53562 49.5192 0.627089 48.8314C0.809989 47.456 1.24498 45.4822 2.25651 43.1197C4.27739 38.3998 8.61205 32.0994 17.8954 25.9161L17.341 25.0838C7.90841 31.3666 3.44021 37.8144 1.33723 42.7261C0.286822 45.1794 -0.170379 47.2422 -0.364185 48.6995C-0.461069 49.4281 -0.492105 50.0051 -0.498596 50.4038C-0.501842 50.6032 -0.498951 50.758 -0.495084 50.8649C-0.493151 50.9184 -0.490973 50.9598 -0.489195 50.9889C-0.488306 51.0035 -0.487518 51.0149 -0.48691 51.0232C-0.486605 51.0274 -0.486346 51.0308 -0.486143 51.0333C-0.486041 51.0346 -0.485953 51.0357 -0.48588 51.0366C-0.485843 51.037 -0.4858 51.0375 -0.485782 51.0378C-0.485742 51.0382 -0.485707 51.0386 0.0124878 50.9962ZM84.1462 45.17C63.5836 48.0005 42.5508 49.3323 26.6552 49.9563C18.7083 50.2683 12.0473 50.4032 7.37346 50.4602C5.0366 50.4887 3.19662 50.4977 1.9412 50.4996C1.31349 50.5005 0.831926 50.4997 0.507471 50.4986C0.345243 50.4981 0.222293 50.4975 0.13999 50.497C0.098839 50.4968 0.0678494 50.4966 0.047193 50.4964C0.0368648 50.4964 0.0291199 50.4963 0.0239797 50.4963C0.0214096 50.4963 0.0194907 50.4962 0.0182256 50.4962C0.017593 50.4962 0.0171353 50.4962 0.0168187 50.4962C0.0165247 50.4962 0.0163946 50.4962 0.0124878 50.9962C0.00858107 51.4962 0.00877924 51.4962 0.00914122 51.4962C0.00948055 51.4962 0.0100064 51.4962 0.0106844 51.4962C0.0120405 51.4962 0.0140506 51.4962 0.016712 51.4962C0.0220349 51.4963 0.0299633 51.4963 0.0404757 51.4964C0.0615004 51.4966 0.0928614 51.4967 0.134387 51.497C0.217439 51.4974 0.341151 51.498 0.504153 51.4986C0.830155 51.4997 1.31332 51.5005 1.94269 51.4996C3.20141 51.4977 5.04497 51.4887 7.38565 51.4602C12.067 51.4031 18.7371 51.2679 26.6944 50.9555C42.6074 50.3309 63.6756 48.9973 84.2825 46.1607L84.1462 45.17ZM84.1462 46.1607C104.753 48.9973 125.821 50.3309 141.734 50.9556C149.692 51.2679 156.362 51.4031 161.043 51.4602C163.384 51.4887 165.227 51.4977 166.486 51.4996C167.115 51.5005 167.599 51.4997 167.925 51.4986C168.088 51.4981 168.211 51.4975 168.294 51.497C168.336 51.4968 168.367 51.4966 168.388 51.4964C168.399 51.4964 168.407 51.4963 168.412 51.4963C168.415 51.4962 168.417 51.4962 168.418 51.4962C168.419 51.4962 168.419 51.4962 168.42 51.4962C168.42 51.4962 168.42 51.4962 168.416 50.9962C168.412 50.4962 168.412 50.4962 168.412 50.4962C168.412 50.4962 168.411 50.4962 168.411 50.4962C168.409 50.4963 168.407 50.4963 168.405 50.4963C168.4 50.4963 168.392 50.4964 168.382 50.4964C168.361 50.4966 168.33 50.4968 168.289 50.497C168.207 50.4975 168.084 50.4981 167.921 50.4986C167.597 50.4997 167.115 50.5005 166.488 50.4996C165.232 50.4977 163.392 50.4887 161.055 50.4602C156.382 50.4033 149.721 50.2683 141.774 49.9563C125.878 49.3323 104.845 48.0005 84.2825 45.17L84.1462 46.1607ZM168.416 50.9962C168.915 51.0387 168.915 51.0382 168.915 51.0378C168.915 51.0376 168.915 51.037 168.915 51.0366C168.915 51.0357 168.915 51.0346 168.915 51.0333C168.915 51.0308 168.915 51.0274 168.916 51.0232C168.916 51.0149 168.917 51.0035 168.918 50.9889C168.92 50.9598 168.922 50.9184 168.924 50.8649C168.928 50.758 168.931 50.6032 168.927 50.4038C168.921 50.0051 168.89 49.4281 168.793 48.6996C168.599 47.2422 168.142 45.1794 167.092 42.7261C164.989 37.8144 160.52 31.3666 151.088 25.0838L150.533 25.9161C159.817 32.0994 164.151 38.3998 166.172 43.1197C167.184 45.4822 167.619 47.456 167.802 48.8314C167.893 49.5192 167.922 50.0575 167.928 50.4201C167.93 50.6014 167.928 50.7387 167.925 50.8288C167.923 50.8738 167.921 50.907 167.92 50.928C167.919 50.9384 167.919 50.9459 167.918 50.9502C167.918 50.9524 167.918 50.9537 167.918 50.9543C167.918 50.9546 167.918 50.9547 167.918 50.9546C167.918 50.9546 167.918 50.9544 167.918 50.9543C167.918 50.9541 167.918 50.9538 168.416 50.9962Z" fill="#3A5141" mask="url(#path-1-inside-1_34_28)"/>
</svg>
