<svg width="239" height="350" viewBox="0 0 239 350" fill="none" xmlns="http://www.w3.org/2000/svg">
<path d="M124.351 98.4969L124.776 98.743C147.581 72.2708 170.215 62.2431 189.19 62.432C208.164 62.6209 223.528 73.0254 231.81 87.5206C240.092 102.016 241.289 120.596 231.929 137.133C222.57 153.67 202.63 168.205 168.562 174.547L168.56 175.038C202.629 181.656 222.5 196.329 231.774 212.918C241.048 229.507 239.749 248.052 231.398 262.479C223.047 276.905 207.649 287.206 188.726 287.309C169.803 287.412 147.307 277.315 124.777 250.843L124.351 251.087C135.89 284.178 133.333 308.881 123.786 325.28C114.238 341.68 97.6786 349.818 81.1158 349.75C64.5529 349.681 47.9921 341.405 38.4442 324.97C28.8964 308.536 26.3398 283.902 37.8795 251.088L37.4542 250.842C14.6492 277.315 -7.9853 287.412 -26.9606 287.309C-45.9355 287.206 -61.2986 276.905 -69.5805 262.479C-77.8625 248.054 -79.06 229.509 -69.7 212.919C-60.3402 196.33 -40.3995 181.656 -6.33081 175.038L-6.33308 174.547C-40.6777 168.205 -60.7547 153.738 -70.165 137.287C-79.5752 120.837 -78.3443 102.362 -69.9937 87.9361C-61.643 73.5098 -46.1758 63.1384 -27.1136 62.8979C-8.05175 62.6575 14.651 72.5484 37.4551 98.744L37.8789 98.4951C26.0643 65.6807 28.4844 41.1175 37.98 24.7705C47.4754 8.42365 64.0695 0.250004 80.7021 0.250004C97.3349 0.250004 113.998 8.42383 123.632 24.7719C133.265 41.1197 135.89 65.6831 124.351 98.4969ZM101.725 174.793C101.725 163.594 91.6917 154.662 80.5641 154.662C69.4203 154.662 60.5041 163.611 60.5041 174.793C60.5041 185.958 69.4032 196.03 80.5641 196.03C91.7094 196.03 101.725 185.975 101.725 174.793Z" stroke="#C7D1D2" stroke-width="0.5"/>
</svg>
