<svg width="184" height="216" viewBox="0 0 184 216" fill="none" xmlns="http://www.w3.org/2000/svg">
<mask id="path-1-inside-1_35_244" fill="white">
<path fill-rule="evenodd" clip-rule="evenodd" d="M215.992 107.992C215.992 107.992 217.273 58.366 187.453 28.5466C157.634 -1.27229 108.008 0.00800669 108.008 0.00800669C108.008 0.00800669 108.001 0.263608 108 0.749008C108 0.544008 107.998 0.380007 107.997 0.258907C107.995 0.093307 107.992 0.00800669 107.992 0.00800669C107.992 0.00800669 58.366 -1.27229 28.5466 28.5466C-1.27229 58.366 0.00800669 107.992 0.00800669 107.992C0.00800669 107.992 49.6345 109.272 79.453 79.453C106.709 52.1981 107.983 8.39511 108 1.06441C108.018 8.39511 109.292 52.1981 136.547 79.453C166.366 109.272 215.992 107.992 215.992 107.992ZM28.5466 187.453C-1.27229 157.634 0.00800669 108.008 0.00800669 108.008C0.00800669 108.008 49.6345 106.728 79.453 136.547C106.709 163.802 107.983 207.605 108 214.936C108.018 207.605 109.292 163.802 136.547 136.547C166.366 106.728 215.992 108.008 215.992 108.008C215.992 108.008 217.273 157.634 187.453 187.453C157.634 217.272 108.008 215.992 108.008 215.992C108.008 215.992 108.001 215.736 108 215.251C107.999 215.736 107.992 215.992 107.992 215.992C107.992 215.992 58.366 217.272 28.5466 187.453Z"/>
</mask>
<path d="M215.992 107.992L216.005 108.492L216.48 108.48L216.492 108.005L215.992 107.992ZM187.453 28.5466L187.099 28.9002V28.9002L187.453 28.5466ZM108.008 0.00800669L107.995 -0.491827L107.521 -0.4796L107.508 -0.0056728L108.008 0.00800669ZM108 0.749008H107.5L108.5 0.750038L108 0.749008ZM107.997 0.258907L108.497 0.254778L108.497 0.252869L107.997 0.258907ZM107.992 0.00800669L108.492 -0.00950667L108.475 -0.479693L108.005 -0.491827L107.992 0.00800669ZM28.5466 28.5466L28.1931 28.1931L28.1931 28.1931L28.5466 28.5466ZM0.00800669 107.992L-0.491827 108.005L-0.47958 108.48L-0.00488534 108.492L0.00800669 107.992ZM79.453 79.453L79.0995 79.0994L79.0995 79.0995L79.453 79.453ZM108 1.06441L108.5 1.06318L107.5 1.06325L108 1.06441ZM136.547 79.453L136.901 79.0995L136.547 79.453ZM28.5466 187.453L28.1931 187.807L28.1931 187.807L28.5466 187.453ZM0.00800669 108.008L-0.00488542 107.508L-0.47958 107.52L-0.491827 107.995L0.00800669 108.008ZM79.453 136.547L79.0995 136.901L79.0995 136.901L79.453 136.547ZM108 214.936L107.5 214.937L108.5 214.937L108 214.936ZM215.992 108.008L216.492 107.995L216.48 107.52L216.005 107.508L215.992 108.008ZM187.453 187.453L187.099 187.099V187.099L187.453 187.453ZM108.008 215.992L107.508 216.006L107.521 216.48L107.995 216.492L108.008 215.992ZM108 215.251L108.5 215.25H107.5L108 215.251ZM107.992 215.992L108.005 216.492L108.479 216.48L108.492 216.006L107.992 215.992ZM215.992 107.992C216.492 108.005 216.492 108.005 216.492 108.004C216.492 108.004 216.492 108.003 216.492 108.002C216.492 108 216.492 107.998 216.492 107.995C216.492 107.988 216.492 107.979 216.493 107.966C216.493 107.942 216.494 107.905 216.495 107.857C216.496 107.76 216.498 107.617 216.499 107.43C216.501 107.056 216.5 106.505 216.489 105.793C216.465 104.37 216.399 102.307 216.225 99.7383C215.878 94.6019 215.104 87.4429 213.394 79.3483C209.977 63.1688 202.814 43.1998 187.807 28.1931L187.099 28.9002C201.912 43.7128 209.018 63.4665 212.416 79.5549C214.114 87.5942 214.883 94.7054 215.227 99.8057C215.4 102.356 215.466 104.402 215.489 105.81C215.5 106.513 215.501 107.057 215.499 107.425C215.498 107.608 215.496 107.748 215.495 107.841C215.494 107.887 215.493 107.922 215.493 107.945C215.493 107.957 215.492 107.966 215.492 107.971C215.492 107.974 215.492 107.976 215.492 107.977C215.492 107.978 215.492 107.979 215.492 107.979C215.492 107.979 215.492 107.979 215.992 107.992ZM187.807 28.1931C172.8 13.1866 152.831 6.02292 136.652 2.60601C128.557 0.896519 121.398 0.122127 116.262 -0.224982C113.693 -0.398557 111.63 -0.465341 110.207 -0.488699C109.495 -0.500378 108.944 -0.501201 108.57 -0.499084C108.383 -0.498025 108.24 -0.496232 108.143 -0.494692C108.095 -0.493923 108.058 -0.493217 108.034 -0.492698C108.021 -0.492439 108.012 -0.492226 108.005 -0.492076C108.002 -0.492001 108 -0.491941 107.998 -0.491899C107.997 -0.491878 107.996 -0.49186 107.996 -0.491849C107.995 -0.491836 107.995 -0.491827 108.008 0.00800669C108.021 0.50784 108.021 0.507839 108.021 0.507834C108.021 0.507825 108.022 0.507815 108.023 0.507799C108.024 0.507767 108.026 0.507717 108.029 0.507651C108.034 0.50752 108.043 0.507325 108.055 0.507083C108.078 0.506599 108.113 0.505923 108.159 0.50518C108.252 0.503695 108.392 0.501939 108.575 0.5009C108.943 0.498823 109.487 0.499614 110.19 0.511167C111.598 0.534273 113.644 0.600425 116.194 0.772743C121.295 1.11742 128.406 1.88663 136.445 3.58443C152.533 6.98209 172.287 14.0878 187.099 28.9002L187.807 28.1931ZM108.008 0.00800669C107.508 -0.00567279 107.508 -0.0056601 107.508 -0.00564643C107.508 -0.00564057 107.508 -0.00562592 107.508 -0.0056142C107.508 -0.00559077 107.508 -0.00556344 107.508 -0.0055322C107.508 -0.00546973 107.508 -0.00539166 107.508 -0.005298C107.508 -0.00511068 107.508 -0.00486101 107.508 -0.00454908C107.508 -0.00392521 107.508 -0.00305233 107.508 -0.0019312C107.508 0.000311042 107.508 0.00354625 107.508 0.00776811C107.508 0.0162118 107.507 0.0286022 107.507 0.0448889C107.506 0.0774621 107.505 0.125621 107.504 0.188962C107.503 0.315643 107.501 0.503058 107.5 0.747978L108.5 0.750038C108.501 0.509558 108.502 0.326472 108.504 0.204003C108.505 0.142768 108.506 0.0966893 108.507 0.0661686C108.507 0.0509083 108.507 0.0395377 108.508 0.0321071C108.508 0.0283918 108.508 0.0256616 108.508 0.0239226C108.508 0.0230532 108.508 0.0224316 108.508 0.0220586C108.508 0.021872 108.508 0.0217477 108.508 0.0216856C108.508 0.0216546 108.508 0.0216391 108.508 0.0216392C108.508 0.0216392 108.508 0.0216432 108.508 0.021651C108.508 0.0216549 108.508 0.0216637 108.508 0.0216657C108.508 0.0216754 108.508 0.0216862 108.008 0.00800669ZM108.5 0.749008C108.5 0.541284 108.498 0.373891 108.497 0.254778L107.497 0.263036C107.498 0.386123 107.5 0.546732 107.5 0.749008H108.5ZM108.497 0.252869C108.496 0.168097 108.495 0.10343 108.494 0.0594934C108.493 0.0375248 108.493 0.0207384 108.492 0.00921239C108.492 0.00344939 108.492 -0.000998544 108.492 -0.00412163C108.492 -0.00568318 108.492 -0.00691352 108.492 -0.00781143C108.492 -0.00826039 108.492 -0.00862624 108.492 -0.00890883C108.492 -0.00905012 108.492 -0.0091706 108.492 -0.00927025C108.492 -0.00932007 108.492 -0.00936469 108.492 -0.00940409C108.492 -0.0094238 108.492 -0.0094422 108.492 -0.00945929C108.492 -0.00946784 108.492 -0.00947969 108.492 -0.00948396C108.492 -0.00949547 108.492 -0.00950667 107.992 0.00800669C107.492 0.0255201 107.492 0.0255095 107.492 0.0254993C107.492 0.0254963 107.492 0.0254864 107.492 0.0254805C107.492 0.0254686 107.492 0.025458 107.492 0.0254487C107.492 0.0254301 107.492 0.0254167 107.492 0.0254086C107.492 0.0253922 107.492 0.0253966 107.492 0.0254217C107.492 0.025472 107.492 0.0256054 107.492 0.0258216C107.492 0.0262541 107.492 0.0270181 107.492 0.0281124C107.492 0.030301 107.493 0.0338109 107.493 0.0386323C107.493 0.0482752 107.493 0.0631638 107.494 0.0832203C107.495 0.123333 107.496 0.184116 107.497 0.264945L108.497 0.252869ZM107.992 0.00800669C108.005 -0.491827 108.005 -0.491836 108.004 -0.491849C108.004 -0.49186 108.003 -0.491878 108.002 -0.491899C108 -0.491941 107.998 -0.492001 107.995 -0.492076C107.988 -0.492226 107.979 -0.492439 107.966 -0.492698C107.942 -0.493217 107.905 -0.493923 107.857 -0.494692C107.76 -0.496232 107.617 -0.498025 107.43 -0.499084C107.056 -0.501201 106.505 -0.500378 105.793 -0.488699C104.37 -0.465341 102.307 -0.398557 99.7383 -0.224982C94.6019 0.122127 87.4429 0.896519 79.3483 2.60601C63.1688 6.02292 43.1998 13.1866 28.1931 28.1931L28.9002 28.9002C43.7128 14.0878 63.4665 6.98209 79.5549 3.58443C87.5942 1.88663 94.7054 1.11742 99.8057 0.772743C102.356 0.600425 104.402 0.534273 105.81 0.511167C106.513 0.499614 107.057 0.498823 107.425 0.5009C107.608 0.501939 107.748 0.503695 107.841 0.50518C107.887 0.505923 107.922 0.506599 107.945 0.507083C107.957 0.507325 107.966 0.50752 107.971 0.507651C107.974 0.507717 107.976 0.507767 107.977 0.507799C107.978 0.507815 107.979 0.507825 107.979 0.507834C107.979 0.507839 107.979 0.50784 107.992 0.00800669ZM28.1931 28.1931C13.1866 43.1998 6.02292 63.1688 2.60601 79.3483C0.896519 87.4429 0.122127 94.6019 -0.224982 99.7383C-0.398557 102.307 -0.465341 104.37 -0.488699 105.793C-0.500378 106.505 -0.501201 107.056 -0.499084 107.43C-0.498025 107.617 -0.496232 107.76 -0.494692 107.857C-0.493923 107.905 -0.493217 107.942 -0.492698 107.966C-0.492439 107.979 -0.492226 107.988 -0.492076 107.995C-0.492001 107.998 -0.491941 108 -0.491899 108.002C-0.491878 108.003 -0.49186 108.004 -0.491849 108.004C-0.491836 108.005 -0.491827 108.005 0.00800669 107.992C0.50784 107.979 0.507839 107.979 0.507834 107.979C0.507825 107.979 0.507815 107.978 0.507799 107.977C0.507767 107.976 0.507717 107.974 0.507651 107.971C0.50752 107.966 0.507325 107.957 0.507083 107.945C0.506599 107.922 0.505923 107.887 0.50518 107.841C0.503695 107.748 0.501939 107.608 0.5009 107.425C0.498823 107.057 0.499614 106.513 0.511167 105.81C0.534273 104.402 0.600425 102.356 0.772743 99.8057C1.11742 94.7054 1.88663 87.5942 3.58443 79.5549C6.98209 63.4665 14.0878 43.7128 28.9002 28.9002L28.1931 28.1931ZM0.00800669 107.992C-0.00488534 108.492 -0.00454549 108.492 -0.00401685 108.492C-0.00358847 108.492 -0.00287062 108.492 -0.00201476 108.492C-0.000302863 108.492 0.0021627 108.492 0.00537779 108.492C0.011808 108.492 0.0212363 108.492 0.0336296 108.493C0.0584162 108.493 0.0950632 108.494 0.143306 108.495C0.23979 108.496 0.382658 108.498 0.56979 108.499C0.94405 108.501 1.49539 108.5 2.20684 108.489C3.62971 108.465 5.69327 108.399 8.26178 108.225C13.3982 107.878 20.5572 107.103 28.6519 105.394C44.8314 101.977 64.8003 94.8131 79.8066 79.8066L79.0995 79.0995C64.2872 93.9119 44.5336 101.018 28.4453 104.415C20.406 106.113 13.2947 106.883 8.19435 107.227C5.64445 107.4 3.59799 107.466 2.19042 107.489C1.48667 107.5 0.942691 107.501 0.575441 107.499C0.391818 107.498 0.252382 107.496 0.15925 107.495C0.112685 107.494 0.0776961 107.493 0.0545491 107.493C0.0429756 107.493 0.0343626 107.493 0.0287431 107.492C0.0259334 107.492 0.0238721 107.492 0.0225633 107.492C0.0219088 107.492 0.0214929 107.492 0.0211651 107.492C0.0209375 107.492 0.0208987 107.492 0.00800669 107.992ZM79.8066 79.8066C93.524 66.0896 100.688 48.2271 104.427 32.9057C108.167 17.5799 108.491 4.75377 108.5 1.06557L107.5 1.06325C107.492 4.70574 107.17 17.4465 103.455 32.6686C99.7393 47.8951 92.638 65.5615 79.0995 79.0994L79.8066 79.8066ZM107.5 1.06563C107.509 4.75378 107.834 17.5799 111.574 32.9057C115.313 48.2271 122.476 66.0896 136.193 79.8066L136.901 79.0995C123.363 65.5615 116.261 47.8951 112.545 32.6686C108.83 17.4465 108.509 4.70574 108.5 1.06318L107.5 1.06563ZM136.193 79.8066C151.2 94.8131 171.169 101.977 187.348 105.394C195.443 107.103 202.602 107.878 207.738 108.225C210.307 108.399 212.37 108.465 213.793 108.489C214.505 108.5 215.056 108.501 215.43 108.499C215.617 108.498 215.76 108.496 215.857 108.495C215.905 108.494 215.942 108.493 215.966 108.493C215.979 108.492 215.988 108.492 215.995 108.492C215.998 108.492 216 108.492 216.002 108.492C216.003 108.492 216.004 108.492 216.004 108.492C216.005 108.492 216.005 108.492 215.992 107.992C215.979 107.492 215.979 107.492 215.979 107.492C215.979 107.492 215.978 107.492 215.977 107.492C215.976 107.492 215.974 107.492 215.971 107.492C215.966 107.493 215.957 107.493 215.945 107.493C215.922 107.493 215.887 107.494 215.841 107.495C215.748 107.496 215.608 107.498 215.425 107.499C215.057 107.501 214.513 107.5 213.81 107.489C212.402 107.466 210.356 107.4 207.806 107.227C202.705 106.883 195.594 106.113 187.555 104.415C171.467 101.018 151.713 93.9119 136.901 79.0995L136.193 79.8066ZM28.9002 187.099C14.0878 172.287 6.98209 152.533 3.58443 136.445C1.88663 128.406 1.11742 121.295 0.772743 116.194C0.600425 113.644 0.534273 111.598 0.511167 110.19C0.499614 109.487 0.498823 108.943 0.5009 108.575C0.501939 108.392 0.503695 108.252 0.50518 108.159C0.505923 108.113 0.506599 108.078 0.507083 108.055C0.507325 108.043 0.50752 108.034 0.507651 108.029C0.507717 108.026 0.507767 108.024 0.507799 108.023C0.507815 108.022 0.507825 108.021 0.507834 108.021C0.507839 108.021 0.50784 108.021 0.00800669 108.008C-0.491827 107.995 -0.491836 107.995 -0.491849 107.996C-0.49186 107.996 -0.491878 107.997 -0.491899 107.998C-0.491941 108 -0.492001 108.002 -0.492076 108.005C-0.492226 108.012 -0.492439 108.021 -0.492698 108.034C-0.493217 108.058 -0.493923 108.095 -0.494692 108.143C-0.496232 108.24 -0.498025 108.383 -0.499084 108.57C-0.501201 108.944 -0.500378 109.495 -0.488699 110.207C-0.465341 111.63 -0.398557 113.693 -0.224982 116.262C0.122127 121.398 0.896519 128.557 2.60601 136.652C6.02292 152.831 13.1866 172.8 28.1931 187.807L28.9002 187.099ZM0.00800669 108.008C0.0208988 108.508 0.0209376 108.508 0.0211651 108.508C0.021493 108.508 0.0219089 108.508 0.0225634 108.508C0.0238722 108.508 0.0259335 108.508 0.0287432 108.508C0.0343627 108.508 0.0429757 108.507 0.0545492 108.507C0.0776962 108.507 0.112685 108.506 0.15925 108.505C0.252382 108.504 0.391818 108.502 0.575441 108.501C0.942691 108.499 1.48667 108.5 2.19043 108.511C3.59799 108.534 5.64445 108.6 8.19435 108.773C13.2947 109.117 20.406 109.887 28.4453 111.585C44.5336 114.982 64.2872 122.088 79.0995 136.901L79.8066 136.193C64.8003 121.187 44.8314 114.023 28.6519 110.606C20.5572 108.897 13.3982 108.122 8.26178 107.775C5.69327 107.601 3.62971 107.535 2.20684 107.511C1.49539 107.5 0.94405 107.499 0.56979 107.501C0.382658 107.502 0.23979 107.504 0.143305 107.505C0.0950631 107.506 0.0584161 107.507 0.0336295 107.507C0.0212362 107.508 0.0118079 107.508 0.00537772 107.508C0.00216263 107.508 -0.00030294 107.508 -0.00201484 107.508C-0.0028707 107.508 -0.00358855 107.508 -0.00401693 107.508C-0.00454557 107.508 -0.00488542 107.508 0.00800669 108.008ZM79.0995 136.901C92.638 150.439 99.7393 168.105 103.455 183.332C107.17 198.554 107.492 211.295 107.5 214.937L108.5 214.935C108.491 211.246 108.167 198.42 104.427 183.094C100.688 167.773 93.524 149.91 79.8066 136.193L79.0995 136.901ZM108.5 214.937C108.509 211.295 108.83 198.554 112.545 183.332C116.261 168.105 123.363 150.439 136.901 136.901L136.193 136.193C122.476 149.91 115.313 167.773 111.574 183.094C107.834 198.42 107.509 211.246 107.5 214.935L108.5 214.937ZM136.901 136.901C151.713 122.088 171.467 114.982 187.555 111.585C195.594 109.887 202.705 109.117 207.806 108.773C210.356 108.6 212.402 108.534 213.81 108.511C214.513 108.5 215.057 108.499 215.425 108.501C215.608 108.502 215.748 108.504 215.841 108.505C215.887 108.506 215.922 108.507 215.945 108.507C215.957 108.507 215.966 108.508 215.971 108.508C215.974 108.508 215.976 108.508 215.977 108.508C215.978 108.508 215.979 108.508 215.979 108.508C215.979 108.508 215.979 108.508 215.992 108.008C216.005 107.508 216.005 107.508 216.004 107.508C216.004 107.508 216.003 107.508 216.002 107.508C216 107.508 215.998 107.508 215.995 107.508C215.988 107.508 215.979 107.508 215.966 107.507C215.942 107.507 215.905 107.506 215.857 107.505C215.76 107.504 215.617 107.502 215.43 107.501C215.056 107.499 214.505 107.5 213.793 107.511C212.37 107.535 210.307 107.601 207.738 107.775C202.602 108.122 195.443 108.897 187.348 110.606C171.169 114.023 151.2 121.187 136.193 136.193L136.901 136.901ZM215.992 108.008C215.492 108.021 215.492 108.021 215.492 108.021C215.492 108.021 215.492 108.022 215.492 108.023C215.492 108.024 215.492 108.026 215.492 108.029C215.492 108.034 215.493 108.043 215.493 108.055C215.493 108.078 215.494 108.113 215.495 108.159C215.496 108.252 215.498 108.392 215.499 108.575C215.501 108.943 215.5 109.487 215.489 110.19C215.466 111.598 215.4 113.644 215.227 116.194C214.883 121.295 214.114 128.406 212.416 136.445C209.018 152.533 201.912 172.287 187.099 187.099L187.807 187.807C202.814 172.8 209.977 152.831 213.394 136.652C215.104 128.557 215.878 121.398 216.225 116.262C216.399 113.693 216.465 111.63 216.489 110.207C216.5 109.495 216.501 108.944 216.499 108.57C216.498 108.383 216.496 108.24 216.495 108.143C216.494 108.095 216.493 108.058 216.493 108.034C216.492 108.021 216.492 108.012 216.492 108.005C216.492 108.002 216.492 108 216.492 107.998C216.492 107.997 216.492 107.996 216.492 107.996C216.492 107.995 216.492 107.995 215.992 108.008ZM187.099 187.099C172.287 201.912 152.533 209.018 136.445 212.415C128.406 214.113 121.295 214.883 116.194 215.227C113.644 215.4 111.598 215.466 110.19 215.489C109.487 215.5 108.943 215.501 108.575 215.499C108.392 215.498 108.252 215.496 108.159 215.495C108.113 215.494 108.078 215.493 108.055 215.493C108.043 215.493 108.034 215.492 108.029 215.492C108.026 215.492 108.024 215.492 108.023 215.492C108.022 215.492 108.021 215.492 108.021 215.492C108.021 215.492 108.021 215.492 108.008 215.992C107.995 216.492 107.995 216.492 107.996 216.492C107.996 216.492 107.997 216.492 107.998 216.492C108 216.492 108.002 216.492 108.005 216.492C108.012 216.492 108.021 216.492 108.034 216.493C108.058 216.493 108.095 216.494 108.143 216.495C108.24 216.496 108.383 216.498 108.57 216.499C108.944 216.501 109.495 216.5 110.207 216.489C111.63 216.465 113.693 216.399 116.262 216.225C121.398 215.878 128.557 215.103 136.652 213.394C152.831 209.977 172.8 202.813 187.807 187.807L187.099 187.099ZM108.008 215.992C108.508 215.978 108.508 215.978 108.508 215.978V215.978C108.508 215.978 108.508 215.978 108.508 215.978C108.508 215.978 108.508 215.978 108.508 215.978C108.508 215.978 108.508 215.978 108.508 215.978C108.508 215.978 108.508 215.977 108.508 215.976C108.508 215.974 108.508 215.972 108.508 215.968C108.507 215.96 108.507 215.949 108.507 215.934C108.506 215.903 108.505 215.857 108.504 215.796C108.502 215.673 108.501 215.49 108.5 215.25L107.5 215.252C107.501 215.497 107.503 215.684 107.504 215.811C107.505 215.874 107.506 215.922 107.507 215.955C107.507 215.971 107.508 215.984 107.508 215.992C107.508 215.996 107.508 216 107.508 216.002C107.508 216.003 107.508 216.004 107.508 216.005C107.508 216.005 107.508 216.005 107.508 216.005C107.508 216.005 107.508 216.005 107.508 216.006C107.508 216.006 107.508 216.006 107.508 216.006C107.508 216.006 107.508 216.006 107.508 216.006C107.508 216.006 107.508 216.006 108.008 215.992ZM107.5 215.25C107.5 215.49 107.498 215.673 107.496 215.796C107.495 215.857 107.494 215.903 107.493 215.934C107.493 215.949 107.493 215.96 107.492 215.968C107.492 215.972 107.492 215.974 107.492 215.976C107.492 215.977 107.492 215.978 107.492 215.978C107.492 215.978 107.492 215.978 107.492 215.978C107.492 215.978 107.492 215.978 107.492 215.978C107.492 215.978 107.492 215.978 107.492 215.978V215.978C107.492 215.978 107.492 215.978 107.992 215.992C108.492 216.006 108.492 216.006 108.492 216.006C108.492 216.006 108.492 216.006 108.492 216.006C108.492 216.006 108.492 216.006 108.492 216.006C108.492 216.005 108.492 216.005 108.492 216.005C108.492 216.005 108.492 216.005 108.492 216.005C108.492 216.004 108.492 216.003 108.492 216.002C108.492 216 108.492 215.996 108.492 215.992C108.492 215.984 108.493 215.971 108.493 215.955C108.494 215.922 108.495 215.874 108.496 215.811C108.497 215.684 108.5 215.497 108.5 215.252L107.5 215.25ZM107.992 215.992C107.979 215.492 107.979 215.492 107.979 215.492C107.979 215.492 107.978 215.492 107.977 215.492C107.976 215.492 107.974 215.492 107.971 215.492C107.966 215.492 107.957 215.493 107.945 215.493C107.922 215.493 107.887 215.494 107.841 215.495C107.748 215.496 107.608 215.498 107.425 215.499C107.057 215.501 106.513 215.5 105.81 215.489C104.402 215.466 102.356 215.4 99.8057 215.227C94.7054 214.883 87.5942 214.113 79.5549 212.415C63.4665 209.018 43.7128 201.912 28.9002 187.099L28.1931 187.807C43.1998 202.813 63.1688 209.977 79.3483 213.394C87.4429 215.103 94.6019 215.878 99.7383 216.225C102.307 216.399 104.37 216.465 105.793 216.489C106.505 216.5 107.056 216.501 107.43 216.499C107.617 216.498 107.76 216.496 107.857 216.495C107.905 216.494 107.942 216.493 107.966 216.493C107.979 216.492 107.988 216.492 107.995 216.492C107.998 216.492 108 216.492 108.002 216.492C108.003 216.492 108.004 216.492 108.004 216.492C108.005 216.492 108.005 216.492 107.992 215.992Z" fill="#C7D1D2" mask="url(#path-1-inside-1_35_244)"/>
</svg>
